<svg width="146" height="51" viewBox="0 0 146 51" fill="none" xmlns="http://www.w3.org/2000/svg">
<path d="M128.806 41.9629V28.365L118.308 13.5118H125.795L131.943 23.3442L138.092 13.5118H145.578L135.08 28.365V41.9629H128.806Z" fill="black"/>
<path d="M98.9976 41.9629V13.5118H116.314V19.2021H105.272V24.8504H115.896V30.5406H105.272V41.9629H98.9976Z" fill="black"/>
<path d="M77.5134 41.9629V13.5118H94.8293V19.2021H83.7873V24.8504H94.411V30.5406H83.7873V41.9629H77.5134Z" fill="black"/>
<path d="M55.1709 41.9629V13.5118H72.9051V19.2021H61.4447V24.8504H72.4868V30.5406H61.4447V36.2727H72.9051V41.9629H55.1709Z" fill="black"/>
<path d="M12.0459 42.6325C10.4843 42.6325 8.9786 42.4372 7.52865 42.0466C6.10657 41.6562 4.82391 41.0565 3.68067 40.2475C2.56532 39.4108 1.67303 38.3648 1.00382 37.1096C0.334607 35.8265 0 34.3203 0 32.5909H6.35753C6.41329 33.7066 6.72001 34.641 7.27769 35.3942C7.83536 36.1194 8.5464 36.6633 9.41081 37.0259C10.3031 37.3606 11.2651 37.528 12.2968 37.528C12.966 37.528 13.691 37.4303 14.4717 37.2351C15.2525 37.0119 15.9217 36.6633 16.4793 36.1891C17.0649 35.687 17.3578 35.0176 17.3578 34.1808C17.3578 33.5392 17.1486 33.0093 16.7303 32.5909C16.3399 32.1446 15.7962 31.782 15.0991 31.5031C14.402 31.2241 13.6073 30.973 12.7151 30.7499C11.8228 30.5268 10.9026 30.2897 9.95459 30.0386C8.86707 29.7598 7.7796 29.425 6.69213 29.0344C5.63254 28.644 4.67055 28.1558 3.80615 27.5701C2.94175 26.9565 2.24465 26.1755 1.71486 25.227C1.18507 24.2786 0.920167 23.1072 0.920167 21.7125C0.920167 20.2342 1.22689 18.965 1.84033 17.9051C2.45378 16.8172 3.26241 15.9246 4.26624 15.2273C5.29793 14.5021 6.44117 13.9721 7.69595 13.6374C8.97861 13.2748 10.2613 13.0935 11.544 13.0935C13.0217 13.0935 14.416 13.2608 15.7265 13.5956C17.0649 13.9302 18.2639 14.4603 19.3235 15.1855C20.3831 15.9107 21.2196 16.8591 21.8331 18.0305C22.4744 19.1742 22.823 20.5549 22.8787 22.1727H16.814C16.6467 20.6944 16.1308 19.6763 15.2664 19.1184C14.402 18.5326 13.1891 18.2398 11.6276 18.2398C11.042 18.2398 10.4146 18.3374 9.74545 18.5326C9.10408 18.7279 8.5464 19.0486 8.07238 19.495C7.62624 19.9134 7.40317 20.4851 7.40317 21.2105C7.40317 21.7682 7.57048 22.2285 7.90508 22.5912C8.26757 22.9538 8.75553 23.2606 9.36898 23.5117C10.0103 23.7626 10.7213 23.9858 11.5021 24.1811C12.3107 24.3763 13.1612 24.5715 14.0535 24.7668C15.1967 25.0457 16.3399 25.3805 17.4832 25.771C18.6264 26.1336 19.6721 26.6217 20.6201 27.2353C21.5961 27.849 22.3768 28.6579 22.9624 29.6621C23.548 30.6662 23.8407 31.9354 23.8407 33.4695C23.8407 35.1431 23.5061 36.5656 22.8369 37.7371C22.1677 38.9087 21.2615 39.8571 20.1182 40.5823C19.0028 41.2796 17.7342 41.7957 16.3121 42.1304C14.9179 42.4651 13.4958 42.6325 12.0459 42.6325Z" fill="black"/>
<path d="M32.2929 50.0659C31.2054 50.0659 30.1877 49.8846 29.2395 49.522C28.2915 49.1594 27.441 48.7131 26.6882 48.1832C25.9632 47.6253 25.3638 47.0674 24.8897 46.5096C24.4156 45.9238 24.095 45.4217 23.9277 45.0034L27.6084 39.6059C28.0267 40.4428 28.4867 41.1959 28.9886 41.8653C29.4905 42.5347 30.0203 43.0648 30.578 43.4552C31.1635 43.8457 31.7352 44.041 32.2929 44.041C33.2967 44.041 34.0774 43.9015 34.6351 43.6226C35.2207 43.3158 35.6389 42.9113 35.8899 42.4092C36.1687 41.8793 36.336 41.2796 36.3918 40.6101C36.4754 39.9407 36.5173 38.4763 36.5173 38.4763L42.7911 38.9784C42.7911 38.9784 42.345 43.8457 41.4527 45.4636C40.5604 47.0813 39.3196 48.2529 37.7302 48.9781C36.1687 49.7033 34.3563 50.0659 32.2929 50.0659Z" fill="#A9DFD4"/>
<path d="M50.188 3.74775C50.1854 3.24944 50.0843 2.75655 49.8903 2.29751C49.6965 1.83847 49.4137 1.42238 49.0582 1.07317C48.3426 0.374896 47.3794 -0.0109539 46.3799 0.000236795L32.2319 0.116332C31.2322 0.121555 30.2755 0.52316 29.5714 1.23309C29.2218 1.58806 28.9458 2.0087 28.7595 2.47093C28.5731 2.93307 28.4801 3.42751 28.4856 3.92582L28.5865 16.2361C28.5915 16.8104 28.7273 17.376 28.9836 17.8898C29.2399 18.4036 29.6101 18.8523 30.0658 19.2016L36.6076 24.2352C37.4384 24.8787 38.4614 25.2239 39.5122 25.2153C40.5629 25.2067 41.5801 24.8447 42.4003 24.1877L48.8586 19.0473C49.3086 18.6906 49.6712 18.236 49.9192 17.718C50.167 17.2 50.2935 16.6323 50.289 16.058L50.188 3.74775ZM34.3137 16.3359C34.0479 16.6 33.6905 16.7512 33.3161 16.758C33.1296 16.762 32.9443 16.7286 32.7709 16.6598C32.5976 16.5909 32.4399 16.488 32.3069 16.3572C32.174 16.2264 32.0686 16.0702 31.9968 15.898C31.9252 15.7258 31.8887 15.541 31.8896 15.3544L31.8276 7.79738C31.8376 7.43051 31.9895 7.08193 32.2513 6.82494C32.5132 6.56786 32.8644 6.42258 33.2313 6.41958C33.5981 6.41658 33.9518 6.55606 34.2178 6.80879C34.4838 7.06143 34.6413 7.40749 34.6572 7.77416L34.7192 15.3312C34.7129 15.7047 34.5685 16.0627 34.3137 16.3359ZM40.4093 19.0499C40.1403 19.3091 39.7849 19.4596 39.4117 19.472C39.0349 19.4686 38.6742 19.319 38.4056 19.0547C38.1369 18.7903 37.9814 18.4319 37.9718 18.0552L37.9296 4.76971C37.9268 4.39443 38.0729 4.03337 38.336 3.76574C38.5991 3.49821 38.9576 3.34607 39.3328 3.34278C39.5192 3.33881 39.7046 3.37228 39.8779 3.44115C40.0512 3.51001 40.209 3.61283 40.3419 3.74369C40.4749 3.87446 40.5803 4.03066 40.6519 4.20283C40.7236 4.37509 40.7601 4.55992 40.7592 4.7465L40.9481 18.0173C40.9311 18.2166 40.8747 18.4104 40.7822 18.5877C40.6897 18.7649 40.563 18.9221 40.4093 19.0499ZM46.857 7.72745L46.919 15.2845C46.9228 15.4707 46.8887 15.6557 46.819 15.8284C46.7493 16.0011 46.6454 16.1579 46.5134 16.2892C46.3836 16.4225 46.2284 16.5285 46.0572 16.601C45.8859 16.6735 45.7018 16.711 45.5158 16.7114C45.1406 16.7142 44.7797 16.568 44.5122 16.3048C44.2448 16.0416 44.0927 15.683 44.0894 15.3077L44.0274 7.75066C44.0373 7.38389 44.1892 7.03521 44.451 6.77822C44.7129 6.52114 45.0642 6.37586 45.431 6.37287C45.7978 6.36987 46.1515 6.50934 46.4175 6.76207C46.6835 7.01471 46.8411 7.36087 46.857 7.72745Z" fill="#A9DFD4"/>
<path d="M40.4093 19.0499C40.1403 19.3092 39.7848 19.4596 39.4116 19.472C39.0348 19.4686 38.6741 19.319 38.4055 19.0547C38.1368 18.7903 37.9813 18.4319 37.9717 18.0552L37.9295 4.76971C37.9267 4.39443 38.0729 4.03337 38.336 3.76575C38.5991 3.49822 38.9576 3.34607 39.3327 3.34278C39.5191 3.33882 39.7045 3.37228 39.8779 3.44115C40.0511 3.51002 40.2089 3.61283 40.3419 3.74369C40.4748 3.87446 40.5802 4.03067 40.6519 4.20283C40.7235 4.37509 40.76 4.55993 40.7591 4.7465L40.948 18.0173C40.931 18.2166 40.8746 18.4104 40.7821 18.5877C40.6897 18.7649 40.5629 18.9221 40.4093 19.0499Z" fill="#3EBBA3"/>
<path d="M34.3137 16.336C34.0479 16.6 33.6905 16.7512 33.3161 16.758C33.1296 16.762 32.9443 16.7286 32.7709 16.6598C32.5976 16.5909 32.4399 16.488 32.3069 16.3572C32.174 16.2264 32.0686 16.0703 31.9968 15.898C31.9252 15.7258 31.8887 15.541 31.8896 15.3544L31.8276 7.7974C31.8376 7.43053 31.9895 7.08195 32.2513 6.82496C32.5132 6.56788 32.8644 6.4226 33.2313 6.4196C33.5981 6.4166 33.9518 6.55608 34.2178 6.80881C34.4838 7.06145 34.6413 7.40751 34.6572 7.77418L34.7192 15.3312C34.7129 15.7048 34.5685 16.0627 34.3137 16.336Z" fill="#3EBBA3"/>
<path d="M46.8569 7.72749L46.9189 15.2845C46.9227 15.4707 46.8887 15.6557 46.8189 15.8285C46.7492 16.0011 46.6453 16.1579 46.5133 16.2893C46.3836 16.4225 46.2284 16.5286 46.0571 16.601C45.8858 16.6735 45.7017 16.7111 45.5157 16.7115C45.1405 16.7143 44.7796 16.568 44.5121 16.3048C44.2447 16.0417 44.0926 15.683 44.0893 15.3077L44.0273 7.75071C44.0372 7.38394 44.1891 7.03526 44.4509 6.77827C44.7128 6.52119 45.0641 6.37591 45.4309 6.37291C45.7977 6.36991 46.1514 6.50938 46.4174 6.76212C46.6834 7.01475 46.841 7.36092 46.8569 7.72749Z" fill="#3EBBA3"/>
<path d="M41.8043 28.0247L37.2663 28.062C37.0192 28.0665 36.7838 28.1677 36.6105 28.3439C36.4373 28.52 36.34 28.7571 36.3396 29.0043L36.4283 39.8191C36.4374 40.0647 36.54 40.2974 36.7151 40.4698C36.8903 40.6421 37.1246 40.741 37.3702 40.7461L41.9083 40.7089L42.7842 39.0223L42.7462 28.9517C42.7371 28.7061 42.6344 28.4733 42.4593 28.3011C42.2842 28.1287 42.0498 28.0298 41.8043 28.0247Z" fill="#A9DFD4"/>
</svg>
